<svg xmlns="http://www.w3.org/2000/svg" xmlns:svg="http://www.w3.org/2000/svg" xmlns:xlink="http://www.w3.org/1999/xlink" version="1.0" height="699.9999994039536pt" width="1145pt" viewBox="60 42 1153 705.9999994039536" ><defs><style type="text/css">
            @font-face {
                font-family: 'noto_regular';
                src: url('https://app.creately.com/diagram/assets/fonts/noto/noto-regular.woff') format('woff'),
                     url('https://app.creately.com/diagram/assets/fonts/noto/noto-regular.woff2') format('woff2');
                font-weight: normal;
                font-style: normal;
            }
        p {
            margin: 0;
        }
        </style></defs><defs><style>
            span{ display: inline-block; }
        </style></defs><g id="1s796g0niy"><g transform="translate(285 220)"><rect x="0" y="0" width="100" height="50" fill="rgba(255,255,255,1)" stroke="#75c19b" stroke-width="1.5" stroke-linecap="round" stroke-linejoin="round"/></g><g transform="translate(314, 235.5) rotate(0, 21, 9.5)" width="42" height="19"><text text-decoration="none" x="1.5" fill="rgb(75, 75, 75)" font-size="10pt" font-family="Lato"  y="17">Admin</text><text text-decoration="none" x="40.5" fill="#4b4b4b" font-size="10pt" font-family="noto_regular"  y="17"></text></g></g><g id="1x6ocsb7pz"><g transform="translate(445 110)"><rect x="0" y="0" width="100" height="50" fill="rgba(255,255,255,1)" stroke="#75c19b" stroke-width="1.5" stroke-linecap="round" stroke-linejoin="round"/></g><g transform="translate(480, 125.5) rotate(0, 15, 9.5)" width="30" height="19"><text text-decoration="none" x="1.5" fill="rgb(75, 75, 75)" font-size="10pt" font-family="Lato"  y="17">User</text><text text-decoration="none" x="28.5" fill="#4b4b4b" font-size="10pt" font-family="noto_regular"  y="17"></text></g></g><g id="1y7incrigr"><g transform="translate(400 510)"><rect x="0" y="0" width="100" height="50" fill="rgba(255,255,255,1)" stroke="#75c19b" stroke-width="1.5" stroke-linecap="round" stroke-linejoin="round"/></g><g transform="translate(435, 525.5) rotate(0, 15, 9.5)" width="30" height="19"><text text-decoration="none" x="1" fill="rgb(75, 75, 75)" font-size="10pt" font-family="Lato"  y="17">Staff</text><text text-decoration="none" x="29" fill="#4b4b4b" font-size="10pt" font-family="noto_regular"  y="17"></text></g></g><g id="8bkt0qfg98"><g transform="translate(600 330)"><rect x="0" y="0" width="100" height="50" fill="rgba(255,255,255,1)" stroke="#75c19b" stroke-width="1.5" stroke-linecap="round" stroke-linejoin="round"/></g><g transform="translate(625, 345.5) rotate(0, 25, 9.5)" width="50" height="19"><text text-decoration="none" x="1" fill="rgb(75, 75, 75)" font-size="10pt" font-family="Lato"  y="17">Student</text><text text-decoration="none" x="49" fill="#4b4b4b" font-size="10pt" font-family="noto_regular"  y="17"></text></g></g><g id="1yh28up99a"><g><path d="M 495,160 L 495,210" fill="none" stroke="#a0a0a0" stroke-width="1.5" stroke-linecap="round" stroke-linejoin="round"/></g></g><g id="679pmaxd4f"><g transform="translate(325 65)"><ellipse cx="50" cy="25" rx="50" ry="25" fill="rgba(255,255,255,1)" stroke="#f6902a" stroke-width="1.5" stroke-linecap="round" stroke-linejoin="round"/></g><g transform="translate(352, 80.5) rotate(0, 23, 9.5)" width="46" height="19"><text text-decoration="none" x="2" fill="rgb(75, 75, 75)" font-size="10pt" font-family="Lato"  y="17">User&#160;</text><text text-decoration="none" x="32" fill="rgb(75, 75, 75)" font-size="10pt" font-family="Lato"  y="17">Id</text><text text-decoration="none" x="44" fill="#4b4b4b" font-size="10pt" font-family="noto_regular"  y="17"></text></g></g><g id="2g9f2psp8e"><g><path d="M 370,140 L 445,140" fill="none" stroke="#a0a0a0" stroke-width="1.5" stroke-linecap="round" stroke-linejoin="round"/></g></g><g id="25vvsq7g8y"><g><path d="M 370,140 L 370,115" fill="none" stroke="#a0a0a0" stroke-width="1.5" stroke-linecap="round" stroke-linejoin="round"/></g></g><g id="1rrkhlp5m4"><g transform="translate(580 105)"><path d="M 130,30 L 65,60 L 0,30 L 65,0 L 130,30 L 130,30 Z" fill="rgba(255,255,255,1)" stroke="#75c19b" stroke-width="1.5" stroke-linecap="round" stroke-linejoin="round"/></g><g transform="translate(632.5, 125.5) rotate(0, 12.5, 9.5)" width="25" height="19"><text text-decoration="none" x="1" fill="rgb(75, 75, 75)" font-size="10pt" font-family="Lato"  y="17">Can</text><text text-decoration="none" x="24" fill="#4b4b4b" font-size="10pt" font-family="noto_regular"  y="17"></text></g></g><g id="2jj4x3ftye"><g transform="translate(760 110)"><rect x="0" y="0" width="100" height="50" fill="rgba(255,255,255,1)" stroke="#75c19b" stroke-width="1.5" stroke-linecap="round" stroke-linejoin="round"/></g><g transform="translate(792.5, 125.5) rotate(0, 17.5, 9.5)" width="35" height="19"><text text-decoration="none" x="1" fill="rgb(75, 75, 75)" font-size="10pt" font-family="Lato"  y="17">Login</text><text text-decoration="none" x="34" fill="#4b4b4b" font-size="10pt" font-family="noto_regular"  y="17"></text></g></g><g id="1jvbdy3y7n"><g><path d="M 710,135 L 760,135" fill="none" stroke="#a0a0a0" stroke-width="1.5" stroke-linecap="round" stroke-linejoin="round"/></g></g><g id="8rqivkzos9"><g transform="translate(905 45)"><ellipse cx="50" cy="25" rx="50" ry="25" fill="rgba(255,255,255,1)" stroke="#f6902a" stroke-width="1.5" stroke-linecap="round" stroke-linejoin="round"/></g><g transform="translate(924.5, 60.5) rotate(0, 30.5, 9.5)" width="61" height="19"><text text-decoration="none" x="1.5" fill="rgb(75, 75, 75)" font-size="10pt" font-family="Lato"  y="17">Password</text><text text-decoration="none" x="59.5" fill="#4b4b4b" font-size="10pt" font-family="noto_regular"  y="17"></text></g></g><g id="1b072ic4h4"><g><path d="M 860,135 L 950,135" fill="none" stroke="#a0a0a0" stroke-width="1.5" stroke-linecap="round" stroke-linejoin="round"/></g></g><g id="2nxj29037h"><g><path d="M 950,95 L 950,135" fill="none" stroke="#a0a0a0" stroke-width="1.5" stroke-linecap="round" stroke-linejoin="round"/></g></g><g id="1p41zujbv7"><g><path d="M 541.7,255 L 635,255" fill="none" stroke="#a0a0a0" stroke-width="1.5" stroke-linecap="round" stroke-linejoin="round"/></g></g><g id="21w9kfonr5"><g><path d="M 635,255 L 635,330" fill="none" stroke="#a0a0a0" stroke-width="1.5" stroke-linecap="round" stroke-linejoin="round"/></g></g><g id="8ki655n0xq"><g transform="translate(680 190)"><path d="M 124.99999642372131,30 L 62.49999821186066,60 L 0,30 L 62.49999821186066,0 L 124.99999642372131,30 L 124.99999642372131,30 Z" fill="rgba(255,255,255,1)" stroke="#75c19b" stroke-width="1.5" stroke-linecap="round" stroke-linejoin="round"/></g><g transform="translate(723.9999982118607, 210.5) rotate(0, 18.5, 9.5)" width="37" height="19"><text text-decoration="none" x="1.5" fill="rgb(75, 75, 75)" font-size="10pt" font-family="Lato"  y="17">Takes</text><text text-decoration="none" x="35.5" fill="#4b4b4b" font-size="10pt" font-family="noto_regular"  y="17"></text></g></g><g id="4pp0r46q9q"><g><path d="M 680,330 L 680,220" fill="none" stroke="#a0a0a0" stroke-width="1.5" stroke-linecap="round" stroke-linejoin="round"/></g></g><g id="2ieqjdc0br"><g transform="translate(845 200)"><rect x="0" y="0" width="100" height="50" fill="rgba(255,255,255,1)" stroke="#75c19b" stroke-width="1.5" stroke-linecap="round" stroke-linejoin="round"/></g><g transform="translate(869, 215.5) rotate(0, 26, 9.5)" width="52" height="19"><text text-decoration="none" x="2" fill="rgb(75, 75, 75)" font-size="10pt" font-family="Lato"  y="17">Courses</text><text text-decoration="none" x="50" fill="#4b4b4b" font-size="10pt" font-family="noto_regular"  y="17"></text></g></g><g id="yc0iaum0yt"><g><path d="M 807,219 L 845,220" fill="none" stroke="#a0a0a0" stroke-width="1.5" stroke-linecap="round" stroke-linejoin="round"/></g></g><g id="1z1efo2jkf"><g><path d="M 969,165 L 969,165" fill="none" stroke="#a0a0a0" stroke-width="1.5" stroke-linecap="round" stroke-linejoin="round"/></g></g><g id="3sc85adc4w"><g><path d="M 945,205 L 1014,162.59999999999997" fill="none" stroke="#a0a0a0" stroke-width="1.5" stroke-linecap="round" stroke-linejoin="round"/></g></g><g id="18a7lpthza"><g transform="translate(1010 125)"><ellipse cx="50" cy="25" rx="50" ry="25" fill="rgba(255,255,255,1)" stroke="#f6902a" stroke-width="1.5" stroke-linecap="round" stroke-linejoin="round"/></g><g transform="translate(1019, 140.5) rotate(0, 41, 9.5)" width="82" height="19"><text text-decoration="none" x="3" fill="rgb(75, 75, 75)" font-size="10pt" font-family="Lato"  y="17">Course&#160;</text><text text-decoration="none" x="48" fill="rgb(75, 75, 75)" font-size="10pt" font-family="Lato"  y="17">Code</text><text text-decoration="none" x="79" fill="#4b4b4b" font-size="10pt" font-family="noto_regular"  y="17"></text></g></g><g id="gytdqqallp"><g><path d="M 945,215 L 1020,215" fill="none" stroke="#a0a0a0" stroke-width="1.5" stroke-linecap="round" stroke-linejoin="round"/></g></g><g id="7ywocgki04"><g transform="translate(1020 195)"><ellipse cx="50" cy="25" rx="50" ry="25" fill="rgba(255,255,255,1)" stroke="#f6902a" stroke-width="1.5" stroke-linecap="round" stroke-linejoin="round"/></g><g transform="translate(1039, 210.5) rotate(0, 31, 9.5)" width="62" height="19"><text text-decoration="none" x="3" fill="rgb(75, 75, 75)" font-size="10pt" font-family="Lato"  y="17">Semester</text><text text-decoration="none" x="59" fill="#4b4b4b" font-size="10pt" font-family="noto_regular"  y="17"></text></g></g><g id="2kqgwc3nnu"><g transform="translate(1020 250)"><ellipse cx="50" cy="25" rx="50" ry="25" fill="rgba(255,255,255,1)" stroke="#f6902a" stroke-width="1.5" stroke-linecap="round" stroke-linejoin="round"/></g><g transform="translate(1026, 265.5) rotate(0, 44, 9.5)" width="88" height="19"><text text-decoration="none" x="3.5" fill="rgb(75, 75, 75)" font-size="10pt" font-family="Lato"  y="17">Course&#160;</text><text text-decoration="none" x="48.5" fill="rgb(75, 75, 75)" font-size="10pt" font-family="Lato"  y="17">Name</text><text text-decoration="none" x="84.5" fill="#4b4b4b" font-size="10pt" font-family="noto_regular"  y="17"></text></g></g><g id="8y0s0axj68"><g><path d="M 1025,265 L 945,235" fill="none" stroke="#a0a0a0" stroke-width="1.5" stroke-linecap="round" stroke-linejoin="round"/></g></g><g id="4b5zvuq3v6"><g><path d="M 670.5,379.5 L 713.5,424.5" fill="none" stroke="#a0a0a0" stroke-width="1.5" stroke-linecap="round" stroke-linejoin="round"/></g></g><g id="6pf1gfjqow"><g transform="translate(655 425)"><path d="M 114.99999701976776,25.000001192092896 L 57.49999850988388,50.00000238418579 L 0,25.000001192092896 L 57.49999850988388,0 L 114.99999701976776,25.000001192092896 L 114.99999701976776,25.000001192092896 Z" fill="rgba(255,255,255,1)" stroke="#75c19b" stroke-width="1.5" stroke-linecap="round" stroke-linejoin="round"/></g><g transform="translate(699.9999985098839, 440.5000011920929) rotate(0, 12.5, 9.5)" width="25" height="19"><text text-decoration="none" x="1" fill="rgb(75, 75, 75)" font-size="10pt" font-family="Lato"  y="17">Has</text><text text-decoration="none" x="24" fill="#4b4b4b" font-size="10pt" font-family="noto_regular"  y="17"></text></g></g><g id="2ls9u609ax"><g transform="translate(735 500)"><rect x="0" y="0" width="100" height="50" fill="rgba(255,255,255,1)" stroke="#75c19b" stroke-width="1.5" stroke-linecap="round" stroke-linejoin="round"/></g><g transform="translate(751, 515.5) rotate(0, 34, 9.5)" width="68" height="19"><text text-decoration="none" x="2" fill="rgb(75, 75, 75)" font-size="10pt" font-family="Lato"  y="17">Marksheet</text><text text-decoration="none" x="66" fill="#4b4b4b" font-size="10pt" font-family="noto_regular"  y="17"></text></g></g><g id="203ezmd50j"><g><path d="M 770,449 L 770,499" fill="none" stroke="#a0a0a0" stroke-width="1.5" stroke-linecap="round" stroke-linejoin="round"/></g></g><g id="1ta8n0douh"><g transform="translate(785 680)"><ellipse cx="47.49999940395355" cy="25" rx="47.49999940395355" ry="25" fill="rgba(255,255,255,1)" stroke="#f6902a" stroke-width="1.5" stroke-linecap="round" stroke-linejoin="round"/></g><g transform="translate(794.4999994039536, 695.5) rotate(0, 38, 9.5)" width="76" height="19"><text text-decoration="none" x="3" fill="rgb(75, 75, 75)" font-size="10pt" font-family="Lato"  y="17">Total&#160;</text><text text-decoration="none" x="36" fill="rgb(75, 75, 75)" font-size="10pt" font-family="Lato"  y="17">marks</text><text text-decoration="none" x="73" fill="#4b4b4b" font-size="10pt" font-family="noto_regular"  y="17"></text></g></g><g id="wqklhncqf2"><g transform="translate(650 600)"><ellipse cx="44.999998807907104" cy="25" rx="44.999998807907104" ry="25" fill="rgba(255,255,255,1)" stroke="#f6902a" stroke-width="1.5" stroke-linecap="round" stroke-linejoin="round"/></g><g transform="translate(671.9999988079071, 615.5) rotate(0, 23, 9.5)" width="46" height="19"><text text-decoration="none" x="1.5" fill="rgb(75, 75, 75)" font-size="10pt" font-family="Lato"  y="17">UID&#160;</text><text text-decoration="none" x="26.5" fill="rgb(75, 75, 75)" font-size="10pt" font-family="Lato"  y="17">No</text><text text-decoration="none" x="44.5" fill="#4b4b4b" font-size="10pt" font-family="noto_regular"  y="17"></text></g></g><g id="by4eggxy2o"><g transform="translate(990 505)"><ellipse cx="39.99999761581421" cy="19.999998807907104" rx="39.99999761581421" ry="19.999998807907104" fill="rgba(255,255,255,1)" stroke="#f6902a" stroke-width="1.5" stroke-linecap="round" stroke-linejoin="round"/></g><g transform="translate(1002.4999976158142, 515.4999988079071) rotate(0, 27.5, 9.5)" width="55" height="19"><text text-decoration="none" x="1.5" fill="rgb(75, 75, 75)" font-size="10pt" font-family="Lato"  y="17">Pass/Fail</text><text text-decoration="none" x="53.5" fill="#4b4b4b" font-size="10pt" font-family="noto_regular"  y="17"></text></g></g><g id="1m69lt2xr1"><g transform="translate(995 605)"><ellipse cx="50" cy="25" rx="50" ry="25" fill="rgba(255,255,255,1)" stroke="#f6902a" stroke-width="1.5" stroke-linecap="round" stroke-linejoin="round"/></g><g transform="translate(995, 620.5) rotate(0, 50, 9.5)" width="100" height="19"><text text-decoration="none" x="3" fill="rgb(75, 75, 75)" font-size="10pt" font-family="Lato"  y="17">Marks&#160;</text><text text-decoration="none" x="43" fill="rgb(75, 75, 75)" font-size="10pt" font-family="Lato"  y="17">obtained</text><text text-decoration="none" x="97" fill="#4b4b4b" font-size="10pt" font-family="noto_regular"  y="17"></text></g></g><g id="1mt0zuz93f"><g transform="translate(769.95 605)"><ellipse cx="35.00000238418579" cy="19.999998807907104" rx="35.00000238418579" ry="19.999998807907104" fill="rgba(255,255,255,1)" stroke="#f6902a" stroke-width="1.5" stroke-linecap="round" stroke-linejoin="round"/></g><g transform="translate(781.9500023841858, 615.4999988079071) rotate(0, 23, 9.5)" width="46" height="19"><text text-decoration="none" x="2" fill="rgb(75, 75, 75)" font-size="10pt" font-family="Lato"  y="17">Credits</text><text text-decoration="none" x="44" fill="#4b4b4b" font-size="10pt" font-family="noto_regular"  y="17"></text></g></g><g id="1px0o0jdpa"><g><path d="M 831,550 L 850,680" fill="none" stroke="#a0a0a0" stroke-width="1.5" stroke-linecap="round" stroke-linejoin="round"/></g></g><g id="1ts0kno0o0"><g><path d="M 742,550 L 720,605" fill="none" stroke="#a0a0a0" stroke-width="1.5" stroke-linecap="round" stroke-linejoin="round"/></g></g><g id="2vmc5tr974"><g><path d="M 835,510 L 990,520" fill="none" stroke="#a0a0a0" stroke-width="1.5" stroke-linecap="round" stroke-linejoin="round"/></g></g><g id="27rgx4r0uy"><g><path d="M 835,525 L 1020.5,607" fill="none" stroke="#a0a0a0" stroke-width="1.5" stroke-linecap="round" stroke-linejoin="round"/></g></g><g id="12bt3ujpu0"><g><path d="M 835,550 L 880,645" fill="none" stroke="#a0a0a0" stroke-width="1.5" stroke-linecap="round" stroke-linejoin="round"/></g></g><g id="sydvpbcm1f"><g transform="translate(680 655)"><ellipse cx="42.500001192092896" cy="20.000000298023224" rx="42.500001192092896" ry="20.000000298023224" fill="rgba(255,255,255,1)" stroke="#f6902a" stroke-width="1.5" stroke-linecap="round" stroke-linejoin="round"/></g><g transform="translate(705.5000011920929, 665.5000002980232) rotate(0, 17, 9.5)" width="34" height="19"><text text-decoration="none" x="1" fill="rgb(75, 75, 75)" font-size="10pt" font-family="Lato"  y="17">SGPA</text><text text-decoration="none" x="33" fill="#4b4b4b" font-size="10pt" font-family="noto_regular"  y="17"></text></g></g><g id="2hh9loiwv1"><g><path d="M 788,550 L 790,605" fill="none" stroke="#a0a0a0" stroke-width="1.5" stroke-linecap="round" stroke-linejoin="round"/></g></g><g id="1ej3r8434s"><g transform="translate(245 370)"><path d="M 130,30 L 65,60 L 0,30 L 65,0 L 130,30 L 130,30 Z" fill="rgba(255,255,255,1)" stroke="#75c19b" stroke-width="1.5" stroke-linecap="round" stroke-linejoin="round"/></g><g transform="translate(277, 390.5) rotate(0, 33, 9.5)" width="66" height="19"><text text-decoration="none" x="3" fill="rgb(75, 75, 75)" font-size="10pt" font-family="Lato"  y="17">Add&#160;</text><text text-decoration="none" x="30" fill="rgb(75, 75, 75)" font-size="10pt" font-family="Lato"  y="17">Users</text><text text-decoration="none" x="63" fill="#4b4b4b" font-size="10pt" font-family="noto_regular"  y="17"></text></g></g><g id="59y95p14yi"><g><path d="M 310,270 L 310,370" fill="none" stroke="#a0a0a0" stroke-width="1.5" stroke-linecap="round" stroke-linejoin="round"/></g></g><g id="28cwmz6u8g"><g><path d="M 310,430 L 400,530" fill="none" stroke="#a0a0a0" stroke-width="1.5" stroke-linecap="round" stroke-linejoin="round"/></g></g><g id="g0huzr16ky"><g transform="translate(400 425)"><path d="M 130,30 L 65,60 L 0,30 L 65,0 L 130,30 L 130,30 Z" fill="rgba(255,255,255,1)" stroke="#75c19b" stroke-width="1.5" stroke-linecap="round" stroke-linejoin="round"/></g><g transform="translate(426.5, 445.5) rotate(0, 38.5, 9.5)" width="77" height="19"><text text-decoration="none" x="4" fill="rgb(75, 75, 75)" font-size="10pt" font-family="Lato"  y="17">Edits&#160;</text><text text-decoration="none" x="36" fill="rgb(75, 75, 75)" font-size="10pt" font-family="Lato"  y="17">marks</text><text text-decoration="none" x="73" fill="#4b4b4b" font-size="10pt" font-family="noto_regular"  y="17"></text></g></g><g id="28rkloewcq"><g><path d="M 465,485 L 465,510" fill="none" stroke="#a0a0a0" stroke-width="1.5" stroke-linecap="round" stroke-linejoin="round"/></g></g><g id="60d4eu4xi0"><g transform="translate(450 210)"><path d="M 0,45 L 90.00000357627869,45 L 45.00000178813934,0 L 0,45 Z" fill="rgba(255,255,255,1)" stroke="#75c19b" stroke-width="1.5" stroke-linecap="round" stroke-linejoin="round"/></g><g transform="translate(484.50000178813934, 223) rotate(0, 10.5, 9.5)" width="21" height="19"><text text-decoration="none" x="1" fill="rgb(75, 75, 75)" font-size="10pt" font-family="Lato"  y="17">ISA</text><text text-decoration="none" x="20" fill="#4b4b4b" font-size="10pt" font-family="noto_regular"  y="17"></text></g></g><g id="2bdma7wyq1"><g><path d="M 385,255 L 450,255" fill="none" stroke="#a0a0a0" stroke-width="1.5" stroke-linecap="round" stroke-linejoin="round"/></g></g><g id="1vpheafxy7"><g><path d="M 545,135 L 580,135" fill="none" stroke="#a0a0a0" stroke-width="1.5" stroke-linecap="round" stroke-linejoin="round"/></g></g><g id="3noefxekjn"><g transform="translate(895 585)"><ellipse cx="44.999998807907104" cy="25" rx="44.999998807907104" ry="25" fill="rgba(255,255,255,1)" stroke="#f6902a" stroke-width="1.5" stroke-linecap="round" stroke-linejoin="round"/></g><g transform="translate(916.9999988079071, 600.5) rotate(0, 23, 9.5)" width="46" height="19"><text text-decoration="none" x="2" fill="rgb(75, 75, 75)" font-size="10pt" font-family="Lato"  y="17">Grades</text><text text-decoration="none" x="44" fill="#4b4b4b" font-size="10pt" font-family="noto_regular"  y="17"></text></g></g><g id="5xnryjyflc"><g transform="translate(860 640)"><ellipse cx="47.49999940395355" cy="20.000000298023224" rx="47.49999940395355" ry="20.000000298023224" fill="rgba(255,255,255,1)" stroke="#f6902a" stroke-width="1.5" stroke-linecap="round" stroke-linejoin="round"/></g><g transform="translate(869.4999994039536, 650.5000002980232) rotate(0, 38, 9.5)" width="76" height="19"><text text-decoration="none" x="4" fill="rgb(75, 75, 75)" font-size="10pt" font-family="Lato"  y="17">ECC&#160;</text><text text-decoration="none" x="30" fill="rgb(75, 75, 75)" font-size="10pt" font-family="Lato"  y="17">Grades</text><text text-decoration="none" x="72" fill="#4b4b4b" font-size="10pt" font-family="noto_regular"  y="17"></text></g></g><g id="ysq0lfu83t"><g transform="translate(995 550)"><ellipse cx="50" cy="25" rx="50" ry="25" fill="rgba(255,255,255,1)" stroke="#f6902a" stroke-width="1.5" stroke-linecap="round" stroke-linejoin="round"/></g><g transform="translate(1008, 557.5) rotate(0, 37, 17.5)" width="74" height="35"><text text-decoration="none" x="2.5" fill="rgb(75, 75, 75)" font-size="10pt" font-family="Lato"  y="14">Attendance&#160;</text><text text-decoration="none" x="19" fill="rgb(75, 75, 75)" font-size="10pt" font-family="Lato"  y="36">Grade</text><text text-decoration="none" x="55" fill="#4b4b4b" font-size="10pt" font-family="noto_regular"  y="36"></text></g></g><g id="5italwzca6"><g><path d="M 836,540 L 900,595" fill="none" stroke="#a0a0a0" stroke-width="1.5" stroke-linecap="round" stroke-linejoin="round"/></g></g><g id="8d9d08036y"><g><path d="M 834,515 L 1000,565" fill="none" stroke="#a0a0a0" stroke-width="1.5" stroke-linecap="round" stroke-linejoin="round"/></g></g><g id="6jl0c28fog"><g><path d="M 760,550 L 745,655" fill="none" stroke="#a0a0a0" stroke-width="1.5" stroke-linecap="round" stroke-linejoin="round"/></g></g><g id="31h9wgnvdx"><g transform="translate(1110 150)"><ellipse cx="50" cy="25" rx="50" ry="25" fill="rgba(255,255,255,1)" stroke="#f6902a" stroke-width="1.5" stroke-linecap="round" stroke-linejoin="round"/></g><g transform="translate(1137, 165.5) rotate(0, 23, 9.5)" width="46" height="19"><text text-decoration="none" x="2" fill="rgb(75, 75, 75)" font-size="10pt" font-family="Lato"  y="17">Credits</text><text text-decoration="none" x="44" fill="#4b4b4b" font-size="10pt" font-family="noto_regular"  y="17"></text></g></g><g id="1ghleb3u64"><g><path d="M 945,210 L 1110,175" fill="none" stroke="#a0a0a0" stroke-width="1.5" stroke-linecap="round" stroke-linejoin="round"/></g></g><g id="23yitw64hh"><g transform="translate(630 375)"><rect x="0" y="0" width="49.010396003723145" height="34.749603271484375" fill="rgba(255,255,255,0.01)" stroke="rgba(255,255,255,0.01)" stroke-width="NaN" stroke-linecap="round" stroke-linejoin="round"/></g><g transform="translate(651.0051980018616, 382.8748016357422) rotate(0, 3.5, 9.5)" width="7" height="19"><text text-decoration="none" x="0.5" fill="rgb(75, 75, 75)" font-size="8pt" font-family="Lato"  y="17">1</text><text text-decoration="none" x="6.5" fill="#4b4b4b" font-size="10pt" font-family="noto_regular"  y="17"></text></g></g><g id="10vmxuz9kz"><g transform="translate(755 475)"><rect x="0" y="0" width="49.010396003723145" height="34.749603271484375" fill="rgba(255,255,255,0.01)" stroke="rgba(255,255,255,0.01)" stroke-width="NaN" stroke-linecap="round" stroke-linejoin="round"/></g><g transform="translate(776.0051980018616, 482.8748016357422) rotate(0, 3.5, 9.5)" width="7" height="19"><text text-decoration="none" x="0" fill="rgb(75, 75, 75)" font-size="8pt" font-family="Lato"  y="17">n</text><text text-decoration="none" x="7" fill="#4b4b4b" font-size="10pt" font-family="noto_regular"  y="17"></text></g></g><g id="59uxzghz8t"><g transform="translate(815 195)"><rect x="0" y="0" width="49.010396003723145" height="34.749603271484375" fill="rgba(255,255,255,0.01)" stroke="rgba(255,255,255,0.01)" stroke-width="NaN" stroke-linecap="round" stroke-linejoin="round"/></g><g transform="translate(836.0051980018616, 202.8748016357422) rotate(0, 3.5, 9.5)" width="7" height="19"><text text-decoration="none" x="0.5" fill="rgb(75, 75, 75)" font-size="8pt" font-family="Lato"  y="17">1</text><text text-decoration="none" x="6.5" fill="#4b4b4b" font-size="10pt" font-family="noto_regular"  y="17"></text></g></g><g id="1u9mrsjifz"><g transform="translate(485 515)"><rect x="0" y="0" width="49.010396003723145" height="34.749603271484375" fill="rgba(255,255,255,0.01)" stroke="rgba(255,255,255,0.01)" stroke-width="NaN" stroke-linecap="round" stroke-linejoin="round"/></g><g transform="translate(506.0051980018616, 522.8748016357422) rotate(0, 3.5, 9.5)" width="7" height="19"><text text-decoration="none" x="0.5" fill="rgb(75, 75, 75)" font-size="8pt" font-family="Lato"  y="17">1</text><text text-decoration="none" x="6.5" fill="#4b4b4b" font-size="10pt" font-family="noto_regular"  y="17"></text></g></g><g id="24nb01ahrq"><g transform="translate(700 495)"><rect x="0" y="0" width="48.9990234375" height="31.149871826171875" fill="rgba(255,255,255,0.01)" stroke="rgba(255,255,255,0.01)" stroke-width="NaN" stroke-linecap="round" stroke-linejoin="round"/></g><g transform="translate(720.99951171875, 501.07493591308594) rotate(0, 3.5, 9.5)" width="7" height="19"><text text-decoration="none" x="0" fill="rgb(75, 75, 75)" font-size="8pt" font-family="Lato"  y="17">n</text><text text-decoration="none" x="7" fill="#4b4b4b" font-size="10pt" font-family="noto_regular"  y="17"></text></g></g><g id="eihsso53i3"><g transform="translate(295 260)"><rect x="0" y="0" width="49.010396003723145" height="34.749603271484375" fill="rgba(255,255,255,0.01)" stroke="rgba(255,255,255,0.01)" stroke-width="NaN" stroke-linecap="round" stroke-linejoin="round"/></g><g transform="translate(316.0051980018616, 267.8748016357422) rotate(0, 3.5, 9.5)" width="7" height="19"><text text-decoration="none" x="0.5" fill="rgb(75, 75, 75)" font-size="8pt" font-family="Lato"  y="17">1</text><text text-decoration="none" x="6.5" fill="#4b4b4b" font-size="10pt" font-family="noto_regular"  y="17"></text></g></g><g id="1ksdvy4069"><g transform="translate(400 330)"><path d="M 130,30 L 65,60 L 0,30 L 65,0 L 130,30 L 130,30 Z" fill="rgba(255,255,255,1)" stroke="#75c19b" stroke-width="1.5" stroke-linecap="round" stroke-linejoin="round"/></g><g transform="translate(431, 350.5) rotate(0, 34, 9.5)" width="68" height="19"><text text-decoration="none" x="2" fill="rgb(75, 75, 75)" font-size="10pt" font-family="Lato"  y="17">Add&#160;</text><text text-decoration="none" x="29" fill="rgb(75, 75, 75)" font-size="10pt" font-family="Lato"  y="17">Marks</text><text text-decoration="none" x="66" fill="#4b4b4b" font-size="10pt" font-family="noto_regular"  y="17"></text></g></g><g id="5brarzx0sv"><g><path d="M 465,330 L 365,270" fill="none" stroke="#a0a0a0" stroke-width="1.5" stroke-linecap="round" stroke-linejoin="round"/></g></g><g id="234a5bfxxt"><g transform="translate(300 635)"><ellipse cx="50" cy="25" rx="50" ry="25" fill="rgba(255,255,255,1)" stroke="#f6902a" stroke-width="1.5" stroke-linecap="round" stroke-linejoin="round"/></g><g transform="translate(323.5, 650.5) rotate(0, 26.5, 9.5)" width="53" height="19"><text text-decoration="none" x="3" fill="rgb(75, 75, 75)" font-size="10pt" font-family="Lato"  y="17">Email&#160;</text><text text-decoration="none" x="38" fill="rgb(75, 75, 75)" font-size="10pt" font-family="Lato"  y="17">Id</text><text text-decoration="none" x="50" fill="#4b4b4b" font-size="10pt" font-family="noto_regular"  y="17"></text></g></g><g id="9f9snrdi1t"><g transform="translate(520 595)"><ellipse cx="50" cy="25" rx="50" ry="25" fill="rgba(255,255,255,1)" stroke="#f6902a" stroke-width="1.5" stroke-linecap="round" stroke-linejoin="round"/></g><g transform="translate(522, 610.5) rotate(0, 48, 9.5)" width="96" height="19"><text text-decoration="none" x="2" fill="rgb(75, 75, 75)" font-size="10pt" font-family="Lato"  y="17">Phone&#160;</text><text text-decoration="none" x="44" fill="rgb(75, 75, 75)" font-size="10pt" font-family="Lato"  y="17">Number</text><text text-decoration="none" x="94" fill="#4b4b4b" font-size="10pt" font-family="noto_regular"  y="17"></text></g></g><g id="2hxsi0cwy5"><g transform="translate(205 600)"><ellipse cx="50" cy="25" rx="50" ry="25" fill="rgba(255,255,255,1)" stroke="#f6902a" stroke-width="1.5" stroke-linecap="round" stroke-linejoin="round"/></g><g transform="translate(232, 615.5) rotate(0, 23, 9.5)" width="46" height="19"><text text-decoration="none" x="2" fill="rgb(75, 75, 75)" font-size="10pt" font-family="Lato"  y="17">User&#160;</text><text text-decoration="none" x="32" fill="rgb(75, 75, 75)" font-size="10pt" font-family="Lato"  y="17">Id</text><text text-decoration="none" x="44" fill="#4b4b4b" font-size="10pt" font-family="noto_regular"  y="17"></text></g></g><g id="41zd7yr61d"><g transform="translate(275 540)"><ellipse cx="50" cy="25" rx="50" ry="25" fill="rgba(255,255,255,1)" stroke="#f6902a" stroke-width="1.5" stroke-linecap="round" stroke-linejoin="round"/></g><g transform="translate(305.5, 555.5) rotate(0, 19.5, 9.5)" width="39" height="19"><text text-decoration="none" x="1.5" fill="rgb(75, 75, 75)" font-size="10pt" font-family="Lato"  y="17">Name</text><text text-decoration="none" x="37.5" fill="#4b4b4b" font-size="10pt" font-family="noto_regular"  y="17"></text></g></g><g id="5bzg11zsuk"><g transform="translate(490 650)"><ellipse cx="50" cy="25" rx="50" ry="25" fill="rgba(255,255,255,1)" stroke="#f6902a" stroke-width="1.5" stroke-linecap="round" stroke-linejoin="round"/></g><g transform="translate(517.5, 665.5) rotate(0, 22.5, 9.5)" width="45" height="19"><text text-decoration="none" x="1.5" fill="rgb(75, 75, 75)" font-size="10pt" font-family="Lato"  y="17">Course</text><text text-decoration="none" x="43.5" fill="#4b4b4b" font-size="10pt" font-family="noto_regular"  y="17"></text></g></g><g id="ci9on5fe6r"><g transform="translate(405 610)"><ellipse cx="50" cy="25" rx="50" ry="25" fill="rgba(255,255,255,1)" stroke="#f6902a" stroke-width="1.5" stroke-linecap="round" stroke-linejoin="round"/></g><g transform="translate(424.5, 625.5) rotate(0, 30.5, 9.5)" width="61" height="19"><text text-decoration="none" x="1.5" fill="rgb(75, 75, 75)" font-size="10pt" font-family="Lato"  y="17">Password</text><text text-decoration="none" x="59.5" fill="#4b4b4b" font-size="10pt" font-family="noto_regular"  y="17"></text></g></g><g id="7d7wfuv24a"><g><path d="M 376,560 L 400,550" fill="none" stroke="#a0a0a0" stroke-width="1.5" stroke-linecap="round" stroke-linejoin="round"/></g></g><g id="cb5abu8x9o"><g><path d="M 370,635 L 425,560" fill="none" stroke="#a0a0a0" stroke-width="1.5" stroke-linecap="round" stroke-linejoin="round"/></g></g><g id="22bynaavl4"><g><path d="M 420,560 L 305,625" fill="none" stroke="#a0a0a0" stroke-width="1.5" stroke-linecap="round" stroke-linejoin="round"/></g></g><g id="xt85maxs9r"><g><path d="M 445,560 L 445,610" fill="none" stroke="#a0a0a0" stroke-width="1.5" stroke-linecap="round" stroke-linejoin="round"/></g></g><g id="96db69ndsd"><g><path d="M 485,560 L 525,650" fill="none" stroke="#a0a0a0" stroke-width="1.5" stroke-linecap="round" stroke-linejoin="round"/></g></g><g id="2ehtu5z1su"><g><path d="M 500,538 L 565,595" fill="none" stroke="#a0a0a0" stroke-width="1.5" stroke-linecap="round" stroke-linejoin="round"/></g></g><g id="2fejwz166d"><g><path d="M 501.45,518.95 L 735,520" fill="none" stroke="#a0a0a0" stroke-width="1.5" stroke-linecap="round" stroke-linejoin="round"/></g></g><g id="19oxphnckx"><g transform="translate(365 505)"><rect x="0" y="0" width="49.010396003723145" height="34.749603271484375" fill="rgba(255,255,255,0.01)" stroke="rgba(255,255,255,0.01)" stroke-width="NaN" stroke-linecap="round" stroke-linejoin="round"/></g><g transform="translate(386.0051980018616, 512.8748016357422) rotate(0, 3.5, 9.5)" width="7" height="19"><text text-decoration="none" x="0" fill="rgb(75, 75, 75)" font-size="8pt" font-family="Lato"  y="17">n</text><text text-decoration="none" x="7" fill="#4b4b4b" font-size="10pt" font-family="noto_regular"  y="17"></text></g></g><g id="2bgp3uhtz6"><g transform="translate(720 270)"><ellipse cx="37.5" cy="22.499999403953552" rx="37.5" ry="22.499999403953552" fill="rgba(255,255,255,1)" stroke="#f6902a" stroke-width="1.5" stroke-linecap="round" stroke-linejoin="round"/></g><g transform="translate(734.5, 282.99999940395355) rotate(0, 23, 9.5)" width="46" height="19"><text text-decoration="none" x="2" fill="rgb(75, 75, 75)" font-size="10pt" font-family="Lato"  y="17">User&#160;</text><text text-decoration="none" x="32" fill="rgb(75, 75, 75)" font-size="10pt" font-family="Lato"  y="17">Id</text><text text-decoration="none" x="44" fill="#4b4b4b" font-size="10pt" font-family="noto_regular"  y="17"></text></g></g><g id="raazx1x61n"><g transform="translate(800 305)"><ellipse cx="42.500001192092896" cy="20.000000298023224" rx="42.500001192092896" ry="20.000000298023224" fill="rgba(255,255,255,1)" stroke="#f6902a" stroke-width="1.5" stroke-linecap="round" stroke-linejoin="round"/></g><g transform="translate(823.0000011920929, 315.5000002980232) rotate(0, 19.5, 9.5)" width="39" height="19"><text text-decoration="none" x="1.5" fill="rgb(75, 75, 75)" font-size="10pt" font-family="Lato"  y="17">Name</text><text text-decoration="none" x="37.5" fill="#4b4b4b" font-size="10pt" font-family="noto_regular"  y="17"></text></g></g><g id="994jur53ys"><g transform="translate(815 360)"><ellipse cx="42.500001192092896" cy="22.499999403953552" rx="42.500001192092896" ry="22.499999403953552" fill="rgba(255,255,255,1)" stroke="#f6902a" stroke-width="1.5" stroke-linecap="round" stroke-linejoin="round"/></g><g transform="translate(831.0000011920929, 372.99999940395355) rotate(0, 26.5, 9.5)" width="53" height="19"><text text-decoration="none" x="3" fill="rgb(75, 75, 75)" font-size="10pt" font-family="Lato"  y="17">Email&#160;</text><text text-decoration="none" x="38" fill="rgb(75, 75, 75)" font-size="10pt" font-family="Lato"  y="17">Id</text><text text-decoration="none" x="50" fill="#4b4b4b" font-size="10pt" font-family="noto_regular"  y="17"></text></g></g><g id="ywlaxmq961"><g transform="translate(890 400)"><ellipse cx="50" cy="25" rx="50" ry="25" fill="rgba(255,255,255,1)" stroke="#f6902a" stroke-width="1.5" stroke-linecap="round" stroke-linejoin="round"/></g><g transform="translate(909.5, 415.5) rotate(0, 30.5, 9.5)" width="61" height="19"><text text-decoration="none" x="1.5" fill="rgb(75, 75, 75)" font-size="10pt" font-family="Lato"  y="17">Password</text><text text-decoration="none" x="59.5" fill="#4b4b4b" font-size="10pt" font-family="noto_regular"  y="17"></text></g></g><g id="26fxfzppq4"><g transform="translate(905 310)"><ellipse cx="50" cy="25" rx="50" ry="25" fill="rgba(255,255,255,1)" stroke="#f6902a" stroke-width="1.5" stroke-linecap="round" stroke-linejoin="round"/></g><g transform="translate(908, 325.5) rotate(0, 47, 9.5)" width="94" height="19"><text text-decoration="none" x="2" fill="rgb(75, 75, 75)" font-size="10pt" font-family="Lato"  y="17">Phone&#160;</text><text text-decoration="none" x="44" fill="rgb(75, 75, 75)" font-size="10pt" font-family="Lato"  y="17">number</text><text text-decoration="none" x="92" fill="#4b4b4b" font-size="10pt" font-family="noto_regular"  y="17"></text></g></g><g id="28c7s83ps2"><g transform="translate(795 420)"><ellipse cx="42.500001192092896" cy="22.499999403953552" rx="42.500001192092896" ry="22.499999403953552" fill="rgba(255,255,255,1)" stroke="#f6902a" stroke-width="1.5" stroke-linecap="round" stroke-linejoin="round"/></g><g transform="translate(815.0000011920929, 432.99999940395355) rotate(0, 22.5, 9.5)" width="45" height="19"><text text-decoration="none" x="1.5" fill="rgb(75, 75, 75)" font-size="10pt" font-family="Lato"  y="17">Course</text><text text-decoration="none" x="43.5" fill="#4b4b4b" font-size="10pt" font-family="noto_regular"  y="17"></text></g></g><g id="akogj1vxrn"><g><path d="M 700,337 L 735,310" fill="none" stroke="#a0a0a0" stroke-width="1.5" stroke-linecap="round" stroke-linejoin="round"/></g></g><g id="9dswqvsida"><g><path d="M 700,348 L 800,320" fill="none" stroke="#a0a0a0" stroke-width="1.5" stroke-linecap="round" stroke-linejoin="round"/></g></g><g id="1syh3l0f5x"><g><path d="M 700,375 L 795,440" fill="none" stroke="#a0a0a0" stroke-width="1.5" stroke-linecap="round" stroke-linejoin="round"/></g></g><g id="2npzyzoakw"><g><path d="M 702,365 L 890,420" fill="none" stroke="#a0a0a0" stroke-width="1.5" stroke-linecap="round" stroke-linejoin="round"/></g></g><g id="cwygv7bvw3"><g><path d="M 700,360 L 815,380" fill="none" stroke="#a0a0a0" stroke-width="1.5" stroke-linecap="round" stroke-linejoin="round"/></g></g><g id="6vklblf65x"><g><path d="M 700,355 L 905,345" fill="none" stroke="#a0a0a0" stroke-width="1.5" stroke-linecap="round" stroke-linejoin="round"/></g></g><g id="1repeko9cs"><g transform="translate(215 155)"><ellipse cx="37.5" cy="22.499999403953552" rx="37.5" ry="22.499999403953552" fill="rgba(255,255,255,1)" stroke="#f6902a" stroke-width="1.5" stroke-linecap="round" stroke-linejoin="round"/></g><g transform="translate(229.5, 167.99999940395355) rotate(0, 23, 9.5)" width="46" height="19"><text text-decoration="none" x="2" fill="rgb(75, 75, 75)" font-size="10pt" font-family="Lato"  y="17">User&#160;</text><text text-decoration="none" x="32" fill="rgb(75, 75, 75)" font-size="10pt" font-family="Lato"  y="17">Id</text><text text-decoration="none" x="44" fill="#4b4b4b" font-size="10pt" font-family="noto_regular"  y="17"></text></g></g><g id="4yafj8reqr"><g transform="translate(110 215)"><ellipse cx="42.500001192092896" cy="20.000000298023224" rx="42.500001192092896" ry="20.000000298023224" fill="rgba(255,255,255,1)" stroke="#f6902a" stroke-width="1.5" stroke-linecap="round" stroke-linejoin="round"/></g><g transform="translate(133.0000011920929, 225.50000029802322) rotate(0, 19.5, 9.5)" width="39" height="19"><text text-decoration="none" x="1.5" fill="rgb(75, 75, 75)" font-size="10pt" font-family="Lato"  y="17">Name</text><text text-decoration="none" x="37.5" fill="#4b4b4b" font-size="10pt" font-family="noto_regular"  y="17"></text></g></g><g id="5veqvik8rn"><g transform="translate(120 160)"><ellipse cx="42.500001192092896" cy="22.499999403953552" rx="42.500001192092896" ry="22.499999403953552" fill="rgba(255,255,255,1)" stroke="#f6902a" stroke-width="1.5" stroke-linecap="round" stroke-linejoin="round"/></g><g transform="translate(136.0000011920929, 172.99999940395355) rotate(0, 26.5, 9.5)" width="53" height="19"><text text-decoration="none" x="3" fill="rgb(75, 75, 75)" font-size="10pt" font-family="Lato"  y="17">Email&#160;</text><text text-decoration="none" x="38" fill="rgb(75, 75, 75)" font-size="10pt" font-family="Lato"  y="17">Id</text><text text-decoration="none" x="50" fill="#4b4b4b" font-size="10pt" font-family="noto_regular"  y="17"></text></g></g><g id="jk9bih1mh8"><g transform="translate(75 260)"><ellipse cx="50" cy="25" rx="50" ry="25" fill="rgba(255,255,255,1)" stroke="#f6902a" stroke-width="1.5" stroke-linecap="round" stroke-linejoin="round"/></g><g transform="translate(78, 275.5) rotate(0, 47, 9.5)" width="94" height="19"><text text-decoration="none" x="2" fill="rgb(75, 75, 75)" font-size="10pt" font-family="Lato"  y="17">Phone&#160;</text><text text-decoration="none" x="44" fill="rgb(75, 75, 75)" font-size="10pt" font-family="Lato"  y="17">number</text><text text-decoration="none" x="92" fill="#4b4b4b" font-size="10pt" font-family="noto_regular"  y="17"></text></g></g><g id="18hx07kfsn"><g transform="translate(85 320)"><ellipse cx="42.500001192092896" cy="22.499999403953552" rx="42.500001192092896" ry="22.499999403953552" fill="rgba(255,255,255,1)" stroke="#f6902a" stroke-width="1.5" stroke-linecap="round" stroke-linejoin="round"/></g><g transform="translate(105.0000011920929, 332.99999940395355) rotate(0, 22.5, 9.5)" width="45" height="19"><text text-decoration="none" x="1.5" fill="rgb(75, 75, 75)" font-size="10pt" font-family="Lato"  y="17">Course</text><text text-decoration="none" x="43.5" fill="#4b4b4b" font-size="10pt" font-family="noto_regular"  y="17"></text></g></g><g id="22ennf5szo"><g transform="translate(190 305)"><ellipse cx="50" cy="25" rx="50" ry="25" fill="rgba(255,255,255,1)" stroke="#f6902a" stroke-width="1.5" stroke-linecap="round" stroke-linejoin="round"/></g><g transform="translate(209.5, 320.5) rotate(0, 30.5, 9.5)" width="61" height="19"><text text-decoration="none" x="1.5" fill="rgb(75, 75, 75)" font-size="10pt" font-family="Lato"  y="17">Password</text><text text-decoration="none" x="59.5" fill="#4b4b4b" font-size="10pt" font-family="noto_regular"  y="17"></text></g></g><g id="5pz1kq23i2"><g><path d="M 275,195 L 295,220" fill="none" stroke="#a0a0a0" stroke-width="1.5" stroke-linecap="round" stroke-linejoin="round"/></g></g><g id="1zyvcet76q"><g><path d="M 205,190 L 285,230" fill="none" stroke="#a0a0a0" stroke-width="1.5" stroke-linecap="round" stroke-linejoin="round"/></g></g><g id="aof1hmuon3"><g><path d="M 194.95,234.95 L 285,240" fill="none" stroke="#a0a0a0" stroke-width="1.5" stroke-linecap="round" stroke-linejoin="round"/></g></g><g id="2hi1apfgxu"><g><path d="M 175,278 L 285,250" fill="none" stroke="#a0a0a0" stroke-width="1.5" stroke-linecap="round" stroke-linejoin="round"/></g></g><g id="xymtm51vso"><g><path d="M 155,325 L 285,260" fill="none" stroke="#a0a0a0" stroke-width="1.5" stroke-linecap="round" stroke-linejoin="round"/></g></g><g id="p41ajoofzc"><g><path d="M 260,305 L 295,270" fill="none" stroke="#a0a0a0" stroke-width="1.5" stroke-linecap="round" stroke-linejoin="round"/></g></g><g id="2mj63ri2hs"><g transform="translate(720 710)"><ellipse cx="34.99999940395355" cy="17.499999701976776" rx="34.99999940395355" ry="17.499999701976776" fill="rgba(255,255,255,1)" stroke="#f6902a" stroke-width="1.5" stroke-linecap="round" stroke-linejoin="round"/></g><g transform="translate(737.4999994039536, 717.9999997019768) rotate(0, 17.5, 9.5)" width="35" height="19"><text text-decoration="none" x="1" fill="rgb(75, 75, 75)" font-size="10pt" font-family="Lato"  y="17">CGPA</text><text text-decoration="none" x="34" fill="#4b4b4b" font-size="10pt" font-family="noto_regular"  y="17"></text></g></g><g id="7rbtp4mix1"><g><path d="M 768,548 L 767.5,650 L 770,710" fill="none" stroke="#a0a0a0" stroke-width="1.5" stroke-linecap="round" stroke-linejoin="round"/></g></g><g id="1in18dcsbb"><g transform="translate(1035 460)"><ellipse cx="44.999998807907104" cy="22.499999403953552" rx="44.999998807907104" ry="22.499999403953552" fill="rgba(255,255,255,1)" stroke="#f6902a" stroke-width="1.5" stroke-linecap="round" stroke-linejoin="round"/></g><g transform="translate(1044.999998807907, 472.99999940395355) rotate(0, 35, 9.5)" width="70" height="19"><text text-decoration="none" x="3" fill="rgb(75, 75, 75)" font-size="10pt" font-family="Lato"  y="17">SIP&#160;</text><text text-decoration="none" x="25" fill="rgb(75, 75, 75)" font-size="10pt" font-family="Lato"  y="17">Grades</text><text text-decoration="none" x="67" fill="#4b4b4b" font-size="10pt" font-family="noto_regular"  y="17"></text></g></g><g id="2d3ur5fyuz"><g><path d="M 835,503 L 1035,485" fill="none" stroke="#a0a0a0" stroke-width="1.5" stroke-linecap="round" stroke-linejoin="round"/></g></g><g id="1chmm1vh9s"><g><path d="M 530,358 L 530,358" fill="none" stroke="#a0a0a0" stroke-width="1.5" stroke-linecap="round" stroke-linejoin="round"/></g></g><g id="2f0gix4lqe"><g><path d="M 530,360 L 575,430 L 735,503" fill="none" stroke="#a0a0a0" stroke-width="1.5" stroke-linecap="round" stroke-linejoin="round"/></g></g><g id="qfyzqsbrno"><g transform="translate(695 510)"><rect x="0" y="0" width="48.9990234375" height="31.149871826171875" fill="rgba(255,255,255,0.01)" stroke="rgba(255,255,255,0.01)" stroke-width="NaN" stroke-linecap="round" stroke-linejoin="round"/></g><g transform="translate(715.99951171875, 516.0749359130859) rotate(0, 3.5, 9.5)" width="7" height="19"><text text-decoration="none" x="0" fill="rgb(75, 75, 75)" font-size="8pt" font-family="Lato"  y="17">n</text><text text-decoration="none" x="7" fill="#4b4b4b" font-size="10pt" font-family="noto_regular"  y="17"></text></g></g><g id="24ir3f48gg"><g><path d="M 470,230 L 232.5,150 L 65,342.5 L 397.85,536.5" fill="none" stroke="#a0a0a0" stroke-width="1.5" stroke-linecap="round" stroke-linejoin="round"/></g></g><g id="2bm97dvwou"><g><path d="M 528,449 L 528,449" fill="none" stroke="#a0a0a0" stroke-width="1.5" stroke-linecap="round" stroke-linejoin="round"/></g></g><g id="1ugh2lh53o"><g><path d="M 530,451 L 530,451" fill="none" stroke="#a0a0a0" stroke-width="1.5" stroke-linecap="round" stroke-linejoin="round"/></g></g><g id="67knmgx0uq"><g><path d="M 530,455 L 575,500" fill="none" stroke="#a0a0a0" stroke-width="1.5" stroke-linecap="round" stroke-linejoin="round"/></g></g><g id="1h1us6h32m"><g transform="translate(350 265)"><rect x="0" y="0" width="49.010396003723145" height="34.749603271484375" fill="rgba(255,255,255,0.01)" stroke="rgba(255,255,255,0.01)" stroke-width="NaN" stroke-linecap="round" stroke-linejoin="round"/></g><g transform="translate(371.0051980018616, 272.8748016357422) rotate(0, 3.5, 9.5)" width="7" height="19"><text text-decoration="none" x="0.5" fill="rgb(75, 75, 75)" font-size="8pt" font-family="Lato"  y="17">1</text><text text-decoration="none" x="6.5" fill="#4b4b4b" font-size="10pt" font-family="noto_regular"  y="17"></text></g></g></svg>